<?xml version="1.0" standalone="no"?>
<!DOCTYPE svg PUBLIC "-//W3C//DTD SVG 20010904//EN"
 "http://www.w3.org/TR/2001/REC-SVG-20010904/DTD/svg10.dtd">
<svg version="1.0" xmlns="http://www.w3.org/2000/svg"
 width="512.000000pt" height="512.000000pt" viewBox="0 0 512.000000 512.000000"
 preserveAspectRatio="xMidYMid meet">

<g transform="translate(0.000000,512.000000) scale(0.100000,-0.100000)"
fill="#000000" stroke="none">
<path d="M3048 4639 c-614 -51 -1058 -203 -1160 -398 l-28 -53 0 -455 0 -455
-37 6 c-94 15 -356 18 -446 6 -466 -63 -874 -359 -1081 -783 -407 -835 76
-1813 994 -2013 120 -26 429 -27 549 -1 280 60 509 180 707 370 l95 90 112
-16 c234 -35 346 -41 662 -41 232 0 362 5 472 17 590 66 970 210 1059 402 l24
50 0 1399 c0 1060 -3 1409 -12 1440 -8 28 -32 61 -78 107 -166 166 -530 277
-1070 324 -176 16 -595 18 -762 4z m874 -133 c357 -46 647 -123 790 -212 67
-41 127 -104 134 -140 24 -131 -270 -277 -711 -354 -792 -137 -1840 -14 -2102
246 -62 62 -68 97 -29 155 91 133 498 266 946 308 63 6 133 13 155 15 99 10
706 -4 817 -18z m917 -1319 c-39 -93 -267 -204 -549 -267 -277 -62 -520 -85
-890 -84 -318 1 -496 15 -730 58 -128 24 -129 24 -192 77 -127 106 -278 194
-421 244 l-77 28 0 338 c0 187 2 339 5 339 2 0 29 -16 59 -35 180 -115 534
-205 971 -246 167 -16 632 -16 800 -1 286 28 582 85 757 148 86 31 213 93 248
122 l25 20 3 -356 c2 -252 -1 -365 -9 -385z m-3053 -22 c267 -47 501 -170 695
-364 148 -148 245 -300 313 -489 94 -262 94 -592 0 -854 -114 -316 -356 -589
-652 -737 -94 -47 -254 -98 -367 -117 -135 -22 -374 -14 -495 16 -345 85 -617
278 -805 568 -414 643 -175 1510 512 1856 107 54 245 100 358 120 110 19 331
20 441 1z m3064 -510 c0 -386 0 -383 -57 -437 -130 -123 -467 -224 -916 -275
-168 -19 -763 -23 -847 -7 -44 9 -45 11 -48 49 -15 238 -107 499 -247 704 -56
82 -56 83 -28 77 79 -17 272 -37 471 -48 356 -19 786 11 1103 78 209 44 441
129 528 194 14 11 29 20 34 20 4 0 7 -160 7 -355z m0 -910 c0 -393 1 -386 -64
-443 -267 -234 -1184 -355 -1940 -257 -60 8 -111 16 -113 19 -3 2 14 33 36 68
117 186 211 473 211 646 l0 45 48 -7 c26 -3 144 -9 262 -13 617 -17 1271 100
1510 271 19 14 38 25 43 26 4 0 7 -160 7 -355z"/>
<path d="M4407 3430 c-32 -10 -64 -24 -72 -30 -21 -18 -18 -64 5 -85 19 -17
27 -18 74 -8 120 25 166 66 132 118 -20 30 -54 32 -139 5z"/>
<path d="M3965 3344 c-49 -7 -193 -18 -320 -24 -126 -6 -240 -14 -253 -16 -35
-7 -48 -51 -24 -83 24 -33 73 -36 315 -21 249 15 417 37 439 57 25 23 23 68
-4 87 -25 18 -29 18 -153 0z"/>
<path d="M1398 2955 c-375 -61 -703 -327 -839 -679 -90 -233 -94 -526 -9 -759
132 -359 436 -617 825 -698 89 -19 314 -16 410 5 405 88 726 393 832 791 24
90 27 117 27 270 0 152 -3 180 -27 268 -109 406 -422 705 -832 793 -102 22
-283 26 -387 9z m114 -182 c3 -72 5 -78 30 -92 25 -14 29 -14 55 5 25 19 28
28 31 93 3 67 4 71 25 67 12 -3 45 -8 72 -11 60 -8 223 -59 249 -78 18 -13 17
-16 -15 -74 -29 -53 -32 -64 -22 -86 13 -27 51 -44 78 -34 13 5 68 85 78 112
10 27 150 -92 230 -193 l48 -62 -47 -27 c-87 -51 -104 -83 -64 -123 28 -28 55
-25 113 11 48 29 51 30 64 13 30 -41 72 -182 88 -296 l6 -48 -58 0 c-92 0
-136 -37 -109 -91 10 -21 20 -25 86 -29 l75 -5 -3 -50 c-4 -66 -36 -190 -67
-261 l-25 -56 -55 31 c-67 38 -99 40 -121 6 -27 -41 -12 -70 57 -108 l60 -34
-49 -64 c-51 -68 -195 -199 -218 -199 -7 0 -15 9 -19 19 -3 10 -19 38 -36 61
-26 35 -34 41 -62 38 -22 -2 -36 -11 -47 -30 -14 -26 -13 -31 19 -89 31 -57
33 -63 17 -75 -29 -21 -207 -73 -278 -82 l-68 -9 0 69 c0 55 -4 72 -20 88 -24
24 -48 25 -78 4 -19 -13 -22 -24 -22 -86 l0 -71 -67 6 c-70 6 -172 34 -256 69
l-47 20 30 53 c33 58 38 96 14 119 -19 19 -54 21 -76 4 -8 -7 -27 -34 -42 -60
-15 -27 -31 -48 -36 -48 -23 0 -175 142 -227 213 -39 53 -40 51 22 84 48 25
65 44 65 74 0 33 -23 59 -52 59 -12 0 -45 -13 -75 -30 -29 -16 -55 -30 -57
-30 -3 0 -18 35 -34 78 -32 81 -62 210 -62 262 l0 30 69 0 c75 0 101 14 101
53 0 46 -36 67 -114 67 -53 0 -56 1 -56 25 0 72 77 335 98 335 4 0 30 -14 57
-30 28 -16 60 -30 72 -30 32 0 55 28 51 64 -2 25 -13 37 -53 63 -27 18 -54 34
-59 36 -30 10 216 267 254 267 5 0 23 -24 40 -52 18 -29 38 -56 44 -60 19 -13
54 -9 70 8 24 23 19 61 -14 119 l-30 52 58 26 c64 29 155 54 240 66 31 5 60 9
64 10 4 0 8 -34 10 -76z"/>
<path d="M1527 2452 c-15 -16 -17 -52 -17 -305 0 -246 2 -288 16 -301 13 -14
48 -16 223 -16 230 0 235 1 229 62 -5 50 -30 58 -200 58 l-148 0 0 238 c0 199
-3 241 -16 260 -19 27 -64 29 -87 4z"/>
<path d="M4412 2499 c-35 -10 -70 -23 -78 -30 -19 -15 -18 -64 2 -83 21 -21
53 -20 134 4 52 15 69 26 78 45 16 35 15 42 -8 65 -24 24 -44 24 -128 -1z"/>
<path d="M3970 2414 c-123 -17 -366 -34 -483 -34 -99 0 -108 -3 -126 -37 -12
-24 -1 -59 23 -75 45 -30 697 22 737 58 26 24 24 69 -3 88 -25 18 -19 18 -148
0z"/>
<path d="M4407 1566 c-37 -11 -72 -28 -77 -36 -26 -41 1 -94 46 -92 52 2 163
41 174 63 20 36 -13 90 -53 88 -12 -1 -53 -11 -90 -23z"/>
<path d="M3985 1484 c-131 -19 -344 -34 -474 -34 -106 0 -113 -1 -137 -25 -27
-27 -26 -59 4 -82 36 -29 600 1 719 38 43 14 57 57 31 91 -19 24 -45 26 -143
12z"/>
</g>
</svg>
