<?xml version="1.0" standalone="no"?>
<!DOCTYPE svg PUBLIC "-//W3C//DTD SVG 20010904//EN"
 "http://www.w3.org/TR/2001/REC-SVG-20010904/DTD/svg10.dtd">
<svg version="1.0" xmlns="http://www.w3.org/2000/svg"
 width="512.000000pt" height="512.000000pt" viewBox="0 0 512.000000 512.000000"
 preserveAspectRatio="xMidYMid meet">

<g transform="translate(0.000000,512.000000) scale(0.100000,-0.100000)"
fill="#000000" stroke="none">
<path d="M2341 5039 c-40 -5 -72 -15 -83 -26 -10 -10 -44 -90 -75 -177 l-58
-159 -54 -18 c-30 -11 -85 -33 -123 -50 l-68 -32 -150 71 c-82 40 -162 72
-178 72 -29 0 -113 -63 -221 -164 -66 -62 -198 -224 -205 -251 -4 -17 15 -69
70 -184 l75 -160 -17 -33 c-10 -18 -34 -73 -54 -122 l-35 -88 -159 -57 c-120
-42 -164 -62 -177 -81 -14 -19 -21 -58 -28 -153 -11 -136 -4 -179 29 -197 12
-6 238 -10 594 -10 662 0 609 -8 621 97 16 139 64 242 157 335 96 96 221 148
358 148 137 0 262 -52 358 -148 95 -95 142 -197 157 -340 5 -47 12 -66 28 -77
18 -13 104 -15 595 -15 355 0 580 4 592 10 33 18 40 61 29 197 -7 95 -14 134
-28 153 -13 19 -57 39 -177 81 l-159 57 -35 88 c-20 49 -44 104 -54 122 l-17
33 75 160 c55 116 74 167 70 184 -13 51 -167 221 -303 336 -69 58 -102 79
-123 79 -15 0 -96 -32 -178 -71 l-151 -71 -68 31 c-38 17 -92 39 -122 50 l-54
18 -58 159 c-31 87 -65 166 -75 176 -11 12 -44 21 -92 28 -89 11 -339 11 -429
-1z m425 -132 c2 -2 28 -72 58 -157 31 -84 62 -160 71 -170 9 -10 57 -32 108
-50 50 -17 117 -45 149 -61 31 -16 70 -29 85 -29 15 0 93 31 173 69 l144 69
31 -21 c40 -29 205 -193 239 -239 l27 -37 -70 -148 c-39 -82 -71 -158 -71
-169 0 -11 17 -56 38 -100 22 -43 47 -104 57 -134 38 -118 32 -113 235 -185
74 -26 136 -48 136 -49 1 0 5 -34 9 -73 l7 -73 -359 0 -359 0 -13 75 c-59 356
-313 635 -668 737 -66 19 -102 23 -233 23 -131 0 -167 -4 -233 -23 -355 -102
-609 -381 -668 -737 l-13 -75 -359 0 -359 0 7 73 c4 39 8 73 9 73 0 1 62 23
136 49 203 72 197 67 235 185 10 30 35 91 57 134 21 44 38 89 38 100 0 11 -32
87 -71 169 l-70 148 27 37 c34 46 199 210 239 239 l31 21 144 -69 c80 -38 158
-69 173 -69 15 0 54 13 85 29 32 16 99 44 150 61 55 19 100 42 110 55 9 12 41
90 71 173 l53 151 52 4 c56 5 356 0 362 -6z m-109 -858 c218 -30 412 -146 539
-325 73 -102 134 -259 134 -343 l0 -31 -60 0 c-57 0 -60 1 -65 28 -18 87 -40
154 -72 214 -73 140 -216 259 -373 313 -74 25 -100 28 -200 28 -100 0 -126 -3
-199 -28 -106 -36 -210 -104 -283 -184 -85 -94 -133 -194 -163 -343 -5 -27 -8
-28 -65 -28 l-60 0 0 31 c0 17 7 59 16 92 77 296 340 532 644 575 91 13 118
13 207 1z"/>
<path d="M2347 3332 c-15 -16 -17 -49 -17 -260 l0 -242 -920 -2 c-917 -3 -919
-3 -940 -24 -12 -12 -24 -41 -28 -67 l-7 -47 -125 96 c-69 53 -126 99 -127
102 -1 4 55 51 125 104 70 54 128 92 129 85 10 -70 17 -91 34 -108 18 -18 40
-19 813 -19 l795 0 20 26 c26 33 27 58 1 84 -20 20 -33 20 -770 20 l-750 0 0
81 c0 44 -4 89 -10 99 -12 23 -59 39 -85 30 -37 -14 -460 -346 -475 -373 -28
-50 -28 -50 318 -314 119 -91 159 -116 184 -116 51 0 68 31 68 124 l0 79 919
2 c888 3 920 4 940 22 20 19 21 27 21 311 0 270 -1 293 -18 308 -25 22 -75 21
-95 -1z"/>
<path d="M2677 3332 c-15 -16 -17 -53 -17 -309 0 -282 1 -290 21 -309 20 -18
52 -19 940 -22 l919 -2 0 -79 c0 -93 16 -122 68 -123 26 -1 59 20 184 115 273
208 302 232 318 260 13 24 13 30 0 54 -15 27 -438 359 -475 373 -26 9 -73 -7
-85 -30 -6 -10 -10 -55 -10 -99 l0 -81 -750 0 c-737 0 -750 0 -770 -20 -26
-26 -25 -51 1 -84 l20 -26 795 0 c773 0 795 1 813 19 17 17 24 38 34 108 1 7
59 -31 129 -85 70 -53 126 -100 125 -104 -1 -3 -58 -49 -127 -102 l-125 -96
-7 47 c-4 26 -16 55 -28 67 -21 21 -23 21 -940 24 l-920 2 0 244 c0 223 -2
244 -18 259 -25 22 -75 21 -95 -1z"/>
<path d="M944 2612 c-18 -11 -248 -382 -267 -430 -29 -74 -17 -156 34 -221 29
-36 105 -76 174 -91 28 -6 67 -15 87 -21 l37 -10 3 -367 3 -367 26 -55 c50
-105 144 -172 266 -190 37 -5 242 -10 456 -10 l387 0 0 -374 c0 -363 1 -374
21 -400 24 -31 57 -34 90 -7 l24 19 3 381 3 381 234 0 234 0 34 38 c91 99 420
490 429 509 24 50 -21 103 -75 89 -15 -3 -98 -93 -233 -251 l-209 -245 -698 0
c-762 0 -737 -2 -800 58 -63 60 -62 49 -65 494 l-3 407 -137 32 c-160 37 -176
43 -192 75 -25 47 -14 77 100 260 139 222 142 228 134 259 -9 38 -66 59 -100
37z"/>
<path d="M3946 2598 c-8 -13 -20 -50 -26 -83 -7 -33 -66 -249 -131 -480 l-119
-420 0 -762 c0 -750 0 -763 20 -783 26 -26 64 -26 90 0 20 20 20 33 20 764 l0
745 124 439 c134 474 150 550 121 582 -26 28 -80 27 -99 -2z"/>
</g>
</svg>
