<?xml version="1.0" standalone="no"?>
<!DOCTYPE svg PUBLIC "-//W3C//DTD SVG 20010904//EN"
 "http://www.w3.org/TR/2001/REC-SVG-20010904/DTD/svg10.dtd">
<svg version="1.0" xmlns="http://www.w3.org/2000/svg"
 width="512.000000pt" height="512.000000pt" viewBox="0 0 512.000000 512.000000"
 preserveAspectRatio="xMidYMid meet">

<g transform="translate(0.000000,512.000000) scale(0.100000,-0.100000)"
fill="#000000" stroke="none">
<path d="M2225 5114 c-135 -13 -297 -41 -410 -69 -847 -213 -1527 -893 -1740
-1740 -54 -217 -69 -342 -69 -590 0 -249 14 -374 68 -589 113 -446 335 -830
663 -1146 338 -326 737 -537 1190 -630 120 -25 183 -25 231 -1 130 67 149 231
39 328 -27 24 -55 36 -114 48 -162 35 -277 66 -371 101 -390 146 -734 420
-970 772 -535 796 -429 1857 251 2533 397 395 938 608 1487 586 419 -17 797
-151 1133 -400 100 -74 277 -245 360 -347 207 -256 353 -573 412 -895 29 -156
48 -197 112 -236 30 -19 52 -24 105 -24 58 0 72 4 109 30 48 34 80 88 86 148
7 59 -47 315 -98 467 -117 352 -299 654 -554 918 -382 397 -849 636 -1400 718
-96 14 -438 26 -520 18z"/>
<path d="M2342 4389 c-45 -13 -108 -80 -121 -126 -7 -25 -11 -281 -11 -754 l0
-716 -359 -365 c-315 -321 -361 -371 -371 -409 -24 -89 8 -178 83 -227 53 -36
154 -38 205 -6 18 11 210 201 427 421 333 339 395 407 405 441 7 28 10 283 8
829 l-3 788 -24 38 c-47 76 -151 113 -239 86z"/>
<path d="M3650 2694 c-335 -43 -610 -180 -837 -417 -181 -189 -292 -401 -349
-668 -26 -118 -26 -400 0 -518 90 -419 351 -760 725 -948 98 -49 231 -95 351
-120 119 -25 382 -24 500 0 294 62 526 190 726 400 143 149 244 318 304 505
65 200 62 280 -10 352 -85 85 -232 75 -301 -22 -12 -16 -33 -73 -46 -126 -89
-351 -344 -610 -693 -703 -71 -20 -109 -23 -235 -23 -181 1 -259 19 -412 94
-709 349 -708 1354 1 1700 155 76 231 93 411 93 107 0 169 -4 215 -16 87 -22
135 -21 188 4 116 57 146 207 60 305 -41 47 -71 61 -181 85 -90 19 -338 33
-417 23z"/>
<path d="M4700 2199 c-26 -8 -118 -93 -360 -332 -179 -177 -376 -371 -437
-431 l-112 -110 -148 145 c-127 125 -155 147 -195 158 -168 47 -313 -120 -238
-274 25 -52 360 -385 415 -413 100 -50 220 -50 324 0 66 32 955 909 994 980
33 62 34 107 3 175 -42 89 -145 132 -246 102z"/>
</g>
</svg>
